<mxfile host="app.diagrams.net" agent="Mozilla/5.0 (Windows NT 10.0; Win64; x64) AppleWebKit/537.36 (KHTML, like Gecko) Chrome/136.0.0.0 Safari/537.36 Edg/136.0.0.0" version="27.0.9">
  <diagram name="Page-1" id="03018318-947c-dd8e-b7a3-06fadd420f32">
    <mxGraphModel dx="1668" dy="925" grid="1" gridSize="10" guides="1" tooltips="1" connect="1" arrows="1" fold="1" page="1" pageScale="1" pageWidth="1100" pageHeight="850" background="none" math="0" shadow="0">
      <root>
        <mxCell id="0" />
        <mxCell id="1" parent="0" />
        <mxCell id="677b7b8949515195-2" value="LOGO" style="whiteSpace=wrap;html=1;rounded=0;shadow=0;labelBackgroundColor=none;strokeWidth=1;fontFamily=Verdana;fontSize=28;align=center;comic=1;" parent="1" vertex="1">
          <mxGeometry x="40" y="60" width="190" height="50" as="geometry" />
        </mxCell>
        <mxCell id="677b7b8949515195-3" value="Search" style="strokeWidth=1;shadow=0;dashed=0;align=center;html=1;shape=mxgraph.mockup.forms.searchBox;strokeColor=#999999;mainText=;strokeColor2=#008cff;fontColor=#666666;fontSize=17;align=left;spacingLeft=3;rounded=0;labelBackgroundColor=none;comic=1;" parent="1" vertex="1">
          <mxGeometry x="840" y="95" width="220" height="30" as="geometry" />
        </mxCell>
        <mxCell id="677b7b8949515195-9" value="" style="line;strokeWidth=1;html=1;rounded=0;shadow=0;labelBackgroundColor=none;fillColor=none;fontFamily=Verdana;fontSize=14;fontColor=#000000;align=center;comic=1;" parent="1" vertex="1">
          <mxGeometry x="20" y="140" width="1060" height="10" as="geometry" />
        </mxCell>
        <mxCell id="677b7b8949515195-16" value="" style="verticalLabelPosition=bottom;shadow=0;dashed=0;align=center;html=1;verticalAlign=top;strokeWidth=1;shape=mxgraph.mockup.graphics.simpleIcon;strokeColor=#999999;rounded=0;labelBackgroundColor=none;fontFamily=Verdana;fontSize=14;fontColor=#000000;comic=1;" parent="1" vertex="1">
          <mxGeometry x="100" y="209" width="900" height="400" as="geometry" />
        </mxCell>
        <mxCell id="_Ud_N8NHI7See3tPiXJL-2" value="" style="shape=actor;whiteSpace=wrap;html=1;" vertex="1" parent="1">
          <mxGeometry x="971" y="30" width="30" height="30" as="geometry" />
        </mxCell>
        <mxCell id="_Ud_N8NHI7See3tPiXJL-4" value="" style="swimlane;shape=mxgraph.bootstrap.anchor;strokeColor=#666666;fillColor=default;fontColor=default;fontStyle=0;childLayout=stackLayout;horizontal=0;startSize=0;horizontalStack=1;resizeParent=1;resizeParentMax=0;resizeLast=0;collapsible=0;marginBottom=0;whiteSpace=wrap;html=1;" vertex="1" parent="1">
          <mxGeometry x="290" y="70" width="500" height="50" as="geometry" />
        </mxCell>
        <mxCell id="_Ud_N8NHI7See3tPiXJL-5" value="CAR" style="text;strokeColor=light-dark(#008CFF, #959595);align=center;verticalAlign=middle;spacingLeft=10;spacingRight=10;overflow=hidden;points=[[0,0.5],[1,0.5]];portConstraint=eastwest;rotatable=0;whiteSpace=wrap;html=1;shape=mxgraph.mockup.leftButton;rSize=10;fillColor=light-dark(#008CFF, #121212);fontColor=default;fontSize=15;fontStyle=1;" vertex="1" parent="_Ud_N8NHI7See3tPiXJL-4">
          <mxGeometry width="125" height="50" as="geometry" />
        </mxCell>
        <mxCell id="_Ud_N8NHI7See3tPiXJL-6" value="구매/이벤" style="text;strokeColor=inherit;align=center;verticalAlign=middle;spacingLeft=10;spacingRight=10;overflow=hidden;points=[[0,0.5],[1,0.5]];portConstraint=eastwest;rotatable=0;whiteSpace=wrap;html=1;rSize=5;fillColor=inherit;fontColor=inherit;fontSize=15;fontStyle=1;" vertex="1" parent="_Ud_N8NHI7See3tPiXJL-4">
          <mxGeometry x="125" width="125" height="50" as="geometry" />
        </mxCell>
        <mxCell id="_Ud_N8NHI7See3tPiXJL-7" value="&lt;font&gt;디지털/고객지원&lt;/font&gt;" style="text;strokeColor=inherit;align=center;verticalAlign=middle;spacingLeft=10;spacingRight=10;overflow=hidden;points=[[0,0.5],[1,0.5]];portConstraint=eastwest;rotatable=0;whiteSpace=wrap;html=1;rSize=5;fillColor=inherit;fontColor=inherit;fontSize=15;fontStyle=1;" vertex="1" parent="_Ud_N8NHI7See3tPiXJL-4">
          <mxGeometry x="250" width="125" height="50" as="geometry" />
        </mxCell>
        <mxCell id="_Ud_N8NHI7See3tPiXJL-8" value="브랜드" style="text;strokeColor=inherit;align=center;verticalAlign=middle;spacingLeft=10;spacingRight=10;overflow=hidden;points=[[0,0.5],[1,0.5]];portConstraint=eastwest;rotatable=0;whiteSpace=wrap;html=1;shape=mxgraph.mockup.rightButton;rSize=10;fillColor=inherit;fontColor=inherit;fontSize=15;fontStyle=1;" vertex="1" parent="_Ud_N8NHI7See3tPiXJL-4">
          <mxGeometry x="375" width="125" height="50" as="geometry" />
        </mxCell>
        <mxCell id="_Ud_N8NHI7See3tPiXJL-20" value="" style="group" vertex="1" connectable="0" parent="1">
          <mxGeometry x="1031" y="30" width="35" height="35" as="geometry" />
        </mxCell>
        <mxCell id="_Ud_N8NHI7See3tPiXJL-15" value="" style="whiteSpace=wrap;html=1;aspect=fixed;strokeColor=default;align=center;verticalAlign=top;fontFamily=Helvetica;fontSize=12;fontColor=default;labelBackgroundColor=light-dark(#FFFFFF,#FFFFFF);fillColor=default;" vertex="1" parent="_Ud_N8NHI7See3tPiXJL-20">
          <mxGeometry width="15" height="15" as="geometry" />
        </mxCell>
        <mxCell id="_Ud_N8NHI7See3tPiXJL-17" value="" style="whiteSpace=wrap;html=1;aspect=fixed;strokeColor=default;align=center;verticalAlign=top;fontFamily=Helvetica;fontSize=12;fontColor=default;labelBackgroundColor=light-dark(#FFFFFF,#FFFFFF);fillColor=default;" vertex="1" parent="_Ud_N8NHI7See3tPiXJL-20">
          <mxGeometry x="20" y="20" width="15" height="15" as="geometry" />
        </mxCell>
        <mxCell id="_Ud_N8NHI7See3tPiXJL-18" value="" style="ellipse;whiteSpace=wrap;html=1;aspect=fixed;strokeColor=default;align=center;verticalAlign=top;fontFamily=Helvetica;fontSize=12;fontColor=default;labelBackgroundColor=light-dark(#FFFFFF,#FFFFFF);fillColor=default;" vertex="1" parent="_Ud_N8NHI7See3tPiXJL-20">
          <mxGeometry y="20" width="15" height="15" as="geometry" />
        </mxCell>
        <mxCell id="_Ud_N8NHI7See3tPiXJL-19" value="" style="whiteSpace=wrap;html=1;aspect=fixed;strokeColor=default;align=center;verticalAlign=top;fontFamily=Helvetica;fontSize=12;fontColor=default;labelBackgroundColor=light-dark(#FFFFFF,#FFFFFF);fillColor=default;" vertex="1" parent="_Ud_N8NHI7See3tPiXJL-20">
          <mxGeometry x="20" width="15" height="15" as="geometry" />
        </mxCell>
        <mxCell id="_Ud_N8NHI7See3tPiXJL-23" value="" style="html=1;verticalLabelPosition=bottom;labelBackgroundColor=#ffffff;verticalAlign=top;shadow=0;dashed=0;strokeWidth=2;shape=mxgraph.ios7.misc.left;strokeColor=#0080f0;align=center;fontFamily=Helvetica;fontSize=12;fontColor=default;fillColor=default;" vertex="1" parent="1">
          <mxGeometry x="20" y="379" width="30" height="60" as="geometry" />
        </mxCell>
        <mxCell id="_Ud_N8NHI7See3tPiXJL-24" value="" style="html=1;verticalLabelPosition=bottom;labelBackgroundColor=#ffffff;verticalAlign=top;shadow=0;dashed=0;strokeWidth=2;shape=mxgraph.ios7.misc.right;strokeColor=#0080f0;align=center;fontFamily=Helvetica;fontSize=12;fontColor=default;fillColor=default;" vertex="1" parent="1">
          <mxGeometry x="1049.75" y="379" width="30.25" height="60.5" as="geometry" />
        </mxCell>
        <mxCell id="_Ud_N8NHI7See3tPiXJL-27" value="" style="shape=mxgraph.signs.transportation.car_3;html=1;pointerEvents=1;fillColor=#000000;strokeColor=none;verticalLabelPosition=bottom;verticalAlign=top;align=center;fontFamily=Helvetica;fontSize=12;fontColor=default;labelBackgroundColor=light-dark(#FFFFFF,#FFFFFF);" vertex="1" parent="1">
          <mxGeometry x="196.1" y="277.25" width="687.8" height="264" as="geometry" />
        </mxCell>
        <mxCell id="_Ud_N8NHI7See3tPiXJL-29" value="CAR" style="text;strokeColor=#008CFF;align=center;verticalAlign=middle;spacingLeft=10;spacingRight=10;overflow=hidden;points=[[0,0.5],[1,0.5]];portConstraint=eastwest;rotatable=0;whiteSpace=wrap;html=1;shape=mxgraph.mockup.leftButton;rSize=10;fillColor=#008CFF;fontColor=#ffffff;fontSize=15;fontStyle=1;" vertex="1" parent="1">
          <mxGeometry x="290" y="10" width="125" height="50" as="geometry" />
        </mxCell>
        <mxCell id="_Ud_N8NHI7See3tPiXJL-30" value="" style="shape=mxgraph.signs.transportation.car_4;html=1;pointerEvents=1;fillColor=#000000;strokeColor=none;verticalLabelPosition=bottom;verticalAlign=top;align=center;fontFamily=Helvetica;fontSize=12;fontColor=default;labelBackgroundColor=light-dark(#FFFFFF,#FFFFFF);" vertex="1" parent="1">
          <mxGeometry x="260" y="640" width="50" height="50" as="geometry" />
        </mxCell>
        <mxCell id="_Ud_N8NHI7See3tPiXJL-31" value="견적 내기" style="text;strokeColor=none;align=center;fillColor=none;html=1;verticalAlign=middle;whiteSpace=wrap;rounded=0;fontFamily=Helvetica;fontSize=12;fontColor=default;labelBackgroundColor=none;fontStyle=1" vertex="1" parent="1">
          <mxGeometry x="255" y="700" width="60" height="30" as="geometry" />
        </mxCell>
        <mxCell id="_Ud_N8NHI7See3tPiXJL-32" value="" style="sketch=0;pointerEvents=1;shadow=0;dashed=0;html=1;strokeColor=none;fillColor=light-dark(#505050, #ffffff);labelPosition=center;verticalLabelPosition=bottom;verticalAlign=top;outlineConnect=0;align=center;shape=mxgraph.office.devices.headset;fontFamily=Helvetica;fontSize=12;fontColor=default;labelBackgroundColor=light-dark(#FFFFFF,#FFFFFF);" vertex="1" parent="1">
          <mxGeometry x="370" y="640" width="50" height="50" as="geometry" />
        </mxCell>
        <mxCell id="_Ud_N8NHI7See3tPiXJL-33" value="구매 상담" style="text;strokeColor=none;align=center;fillColor=none;html=1;verticalAlign=middle;whiteSpace=wrap;rounded=0;fontFamily=Helvetica;fontSize=12;fontColor=default;labelBackgroundColor=none;fontStyle=1" vertex="1" parent="1">
          <mxGeometry x="365" y="700" width="60" height="30" as="geometry" />
        </mxCell>
        <mxCell id="_Ud_N8NHI7See3tPiXJL-36" value="" style="shape=image;html=1;verticalAlign=top;verticalLabelPosition=bottom;labelBackgroundColor=#ffffff;imageAspect=0;aspect=fixed;image=https://cdn0.iconfinder.com/data/icons/evericons-24px-vol-2/24/gift-128.png;strokeColor=default;align=center;fontFamily=Helvetica;fontSize=12;fontColor=default;fillColor=default;imageBackground=none;imageBorder=none;" vertex="1" parent="1">
          <mxGeometry x="700" y="680" width="128" height="128" as="geometry" />
        </mxCell>
      </root>
    </mxGraphModel>
  </diagram>
</mxfile>
